<svg 
  width="24" 
  height="24" 
  viewBox="0 0 24 24" 
  fill="none" 
  xmlns="http://www.w3.org/2000/svg"
>
  <path 
    d="M5,18.22V5.78a1,1,0,0,1,.76-1l6-1.5a1,1,0,0,1,1.24,1V19.72a1,1,0,0,1-1.24,1l-6-1.5A1,1,0,0,1,5,18.22Z"
    fill="#d37d7d"
  />
  
  <path 
    d="M13,19h5a1,1,0,0,0,1-1V6a1,1,0,0,0-1-1H13"
    stroke="#d37d7d"
    stroke-width="2"
    stroke-linecap="round"
    stroke-linejoin="round"
  />
  
  <path 
    d="M5,18.22V5.78a1,1,0,0,1,.76-1l6-1.5a1,1,0,0,1,1.24,1V19.72a1,1,0,0,1-1.24,1l-6-1.5A1,1,0,0,1,5,18.22Z"
    stroke="#d37d7d"
    stroke-width="2"
    stroke-linecap="round"
    stroke-linejoin="round"
  />
</svg>